<?xml version="1.0" encoding="utf-8"?>
<!-- Generator: Adobe Illustrator 25.0.1, SVG Export Plug-In . SVG Version: 6.00 Build 0)  -->
<svg version="1.1" id="Artwork" xmlns="http://www.w3.org/2000/svg" xmlns:xlink="http://www.w3.org/1999/xlink" x="0px" y="0px"
	 viewBox="0 0 140.6 41" style="enable-background:new 0 0 140.6 41;" xml:space="preserve">
<style type="text/css">
	.st0{fill:#A6A6A6;}
	.st1{fill:#FFFFFF;}
	.st2{fill-rule:evenodd;clip-rule:evenodd;fill:url(#SVGID_1_);}
	.st3{fill-rule:evenodd;clip-rule:evenodd;fill:#FFFFFF;}
</style>
<path class="st0" d="M130.1,0H9.5C9.2,0,8.8,0,8.4,0C8.1,0,7.8,0,7.5,0c-0.7,0-1.3,0.1-2,0.2C4.8,0.3,4.2,0.5,3.6,0.8
	C3,1.1,2.5,1.5,2,2C1.5,2.5,1.1,3,0.8,3.6C0.5,4.2,0.3,4.8,0.2,5.5C0.1,6.2,0,6.8,0,7.5c0,0.3,0,0.6,0,0.9c0,0.4,0,0.7,0,1.1v20.9
	c0,0.4,0,0.7,0,1.1c0,0.3,0,0.6,0,0.9c0,0.7,0.1,1.3,0.2,2c0.1,0.7,0.3,1.3,0.6,1.9C1.1,37,1.5,37.5,2,38c0.5,0.5,1,0.9,1.6,1.2
	c0.6,0.3,1.2,0.5,1.9,0.6c0.7,0.1,1.3,0.2,2,0.2c0.3,0,0.6,0,0.9,0c0.4,0,0.7,0,1.1,0h120.6c0.4,0,0.7,0,1.1,0c0.3,0,0.6,0,0.9,0
	c0.7,0,1.3-0.1,2-0.2c0.7-0.1,1.3-0.3,1.9-0.6c0.6-0.3,1.1-0.7,1.6-1.2c0.5-0.5,0.9-1,1.2-1.6c0.3-0.6,0.5-1.2,0.6-1.9
	c0.1-0.7,0.2-1.3,0.2-2c0-0.3,0-0.6,0-0.9c0-0.4,0-0.7,0-1.1V9.5c0-0.4,0-0.7,0-1.1c0-0.3,0-0.6,0-0.9c0-0.7-0.1-1.3-0.2-2
	c-0.1-0.7-0.3-1.3-0.6-1.9c-0.3-0.6-0.7-1.2-1.2-1.6c-0.5-0.5-1-0.9-1.6-1.2c-0.6-0.3-1.2-0.5-1.9-0.6c-0.7-0.1-1.3-0.2-2-0.2
	c-0.3,0-0.6,0-0.9,0C130.8,0,130.4,0,130.1,0L130.1,0z"/>
<path d="M8.4,39.1c-0.3,0-0.6,0-0.9,0c-0.6,0-1.2,0-1.9-0.2c-0.6-0.1-1.2-0.3-1.7-0.5c-0.5-0.3-1-0.6-1.4-1s-0.8-0.9-1-1.4
	c-0.3-0.5-0.4-1-0.5-1.7c-0.1-0.7-0.1-1.4-0.2-1.9c0-0.2,0-0.9,0-0.9V8.4c0,0,0-0.7,0-0.9C0.9,7,0.9,6.3,1,5.7
	C1.2,5.1,1.3,4.5,1.6,4c0.3-0.5,0.6-1,1-1.4C3,2.2,3.5,1.9,4,1.6s1.1-0.4,1.7-0.5C6.3,0.9,7,0.9,7.5,0.9l0.9,0h122.7l0.9,0
	c0.5,0,1.2,0,1.9,0.2c0.6,0.1,1.1,0.3,1.7,0.5c0.5,0.3,1,0.6,1.4,1s0.8,0.9,1,1.4c0.3,0.5,0.4,1,0.5,1.7c0.1,0.6,0.1,1.3,0.2,1.9
	c0,0.3,0,0.6,0,0.9c0,0.4,0,0.7,0,1.1v20.9c0,0.4,0,0.7,0,1.1c0,0.3,0,0.6,0,0.9c0,0.6-0.1,1.2-0.2,1.8c-0.1,0.6-0.3,1.2-0.5,1.7
	c-0.3,0.5-0.6,1-1,1.4c-0.4,0.4-0.9,0.8-1.4,1c-0.5,0.3-1.1,0.4-1.7,0.5c-0.6,0.1-1.3,0.2-1.9,0.2c-0.3,0-0.6,0-0.9,0h-1.1L8.4,39.1
	z"/>
<path class="st1" d="M42.1,14.8h-3.7V8.8h0.9v5.1h2.8V14.8z"/>
<path class="st1" d="M43.2,8.9c0-0.3,0.2-0.5,0.6-0.5s0.6,0.2,0.6,0.5c0,0.3-0.2,0.5-0.6,0.5S43.2,9.2,43.2,8.9z M43.3,10.3h0.9v4.5
	h-0.9V10.3z"/>
<path class="st1" d="M47.3,10.2c1,0,1.7,0.5,1.8,1.3h-0.8c-0.1-0.3-0.4-0.5-0.9-0.5c-0.5,0-0.9,0.2-0.9,0.6c0,0.3,0.2,0.4,0.7,0.6
	l0.8,0.2c0.8,0.2,1.2,0.6,1.2,1.2c0,0.9-0.8,1.4-1.9,1.4s-1.8-0.5-1.8-1.3h0.9c0.1,0.4,0.4,0.6,1,0.6c0.5,0,1-0.2,1-0.6
	c0-0.3-0.2-0.4-0.7-0.6l-0.8-0.2c-0.8-0.2-1.2-0.6-1.2-1.3C45.6,10.7,46.3,10.2,47.3,10.2z"/>
<path class="st1" d="M51.5,9.1v1.1h1V11h-1v2.3c0,0.5,0.2,0.7,0.6,0.7c0.1,0,0.2,0,0.3,0v0.7c-0.1,0-0.3,0.1-0.5,0.1
	c-1,0-1.4-0.4-1.4-1.2V11h-0.7v-0.8h0.7V9.1H51.5z"/>
<path class="st1" d="M57.4,13.5c-0.2,0.8-0.9,1.3-2,1.3c-1.3,0-2.1-0.9-2.1-2.3s0.8-2.4,2.1-2.4c1.2,0,2,0.9,2,2.3v0.3h-3.2v0.1
	c0,0.8,0.5,1.3,1.2,1.3c0.5,0,0.9-0.2,1.1-0.6C56.6,13.5,57.4,13.5,57.4,13.5z M54.3,12.1h2.3c0-0.7-0.5-1.2-1.1-1.2
	C54.8,10.9,54.3,11.4,54.3,12.1z"/>
<path class="st1" d="M58.7,10.3h0.8V11h0.1c0.2-0.5,0.7-0.8,1.3-0.8c1,0,1.6,0.6,1.6,1.7v2.9h-0.9v-2.7c0-0.7-0.3-1.1-1-1.1
	s-1.1,0.4-1.1,1.1v2.6h-0.9V10.3z"/>
<path class="st1" d="M66.1,12.5c0-1.4,0.8-2.3,2.1-2.3c1.3,0,2.1,0.9,2.1,2.3c0,1.5-0.8,2.3-2.1,2.3C66.9,14.8,66.1,14,66.1,12.5z
	 M69.4,12.5c0-1-0.4-1.5-1.2-1.5c-0.8,0-1.2,0.6-1.2,1.5c0,1,0.4,1.6,1.2,1.6C69,14.1,69.4,13.5,69.4,12.5z"/>
<path class="st1" d="M71.5,10.3h0.8V11h0.1c0.2-0.5,0.7-0.8,1.3-0.8c1,0,1.6,0.6,1.6,1.7v2.9h-0.9v-2.7c0-0.7-0.3-1.1-1-1.1
	s-1.1,0.4-1.1,1.1v2.6h-0.9C71.5,14.8,71.5,10.3,71.5,10.3z"/>
<path class="st1" d="M46,27.8h-4.7l-1.1,3.4h-2l4.5-12.4h2.1l4.5,12.4h-2L46,27.8z M41.8,26.3h3.8l-1.8-5.5h0L41.8,26.3z"/>
<path class="st1" d="M58.9,26.7c0,2.8-1.5,4.6-3.8,4.6c-1.3,0-2.3-0.6-2.8-1.6h0v4.5h-1.9V22.1h1.8v1.5h0c0.5-1,1.6-1.6,2.9-1.6
	C57.4,22,58.9,23.9,58.9,26.7z M57,26.7c0-1.8-1-3-2.4-3c-1.4,0-2.4,1.2-2.4,3c0,1.8,1,3,2.4,3C56,29.7,57,28.5,57,26.7z"/>
<path class="st1" d="M68.9,26.7c0,2.8-1.5,4.6-3.8,4.6c-1.3,0-2.3-0.6-2.8-1.6h0v4.5h-1.9V22.1h1.8v1.5h0c0.5-1,1.6-1.6,2.9-1.6
	C67.3,22,68.9,23.9,68.9,26.7z M66.9,26.7c0-1.8-0.9-3-2.4-3c-1.4,0-2.4,1.2-2.4,3c0,1.8,1,3,2.4,3C66,29.7,66.9,28.5,66.9,26.7z"/>
<path class="st1" d="M70.4,18.8h1.9v12.4h-1.9V18.8z"/>
<path class="st1" d="M81.9,28.5c-0.2,1.6-1.8,2.8-3.9,2.8c-2.6,0-4.3-1.8-4.3-4.6c0-2.8,1.7-4.7,4.2-4.7c2.5,0,4.1,1.7,4.1,4.5v0.6
	h-6.4v0.1c0,1.5,1,2.6,2.4,2.6c1,0,1.8-0.5,2.1-1.3C80.1,28.5,81.9,28.5,81.9,28.5z M75.6,25.8h4.5c0-1.4-0.9-2.3-2.2-2.3
	C76.6,23.5,75.7,24.5,75.6,25.8z"/>
<path class="st1" d="M98.1,31.2v-9.1H98l-3.8,9.1h-1.4l-3.8-9H89v9.1h-1.8V18.8h2.2l4,9.8h0.1l4-9.8h2.2v12.4H98.1z"/>
<path class="st1" d="M109.7,31.2h-1.8v-1.6h0c-0.5,1.1-1.4,1.7-2.8,1.7c-2,0-3.2-1.3-3.2-3.4v-5.8h1.9v5.4c0,1.4,0.7,2.1,1.9,2.1
	c1.3,0,2.2-0.9,2.2-2.3v-5.2h1.9C109.7,22.1,109.7,31.2,109.7,31.2z"/>
<path class="st1" d="M115,22c2,0,3.4,1.1,3.5,2.7h-1.8c-0.1-0.8-0.8-1.3-1.8-1.3c-1,0-1.7,0.5-1.7,1.2c0,0.5,0.4,0.9,1.4,1.1
	l1.5,0.4c1.8,0.4,2.5,1.1,2.5,2.4c0,1.6-1.6,2.8-3.8,2.8c-2.1,0-3.6-1.1-3.7-2.8h1.8c0.1,0.9,0.8,1.3,2,1.3c1.1,0,1.8-0.5,1.8-1.2
	c0-0.6-0.3-0.9-1.3-1.1l-1.6-0.4c-1.6-0.4-2.5-1.2-2.5-2.5C111.5,23.1,112.9,22,115,22z"/>
<path class="st1" d="M120.2,19.8c0-0.6,0.5-1.1,1.1-1.1s1.1,0.5,1.1,1.1c0,0.6-0.5,1.1-1.1,1.1C120.6,20.8,120.2,20.3,120.2,19.8z
	 M120.3,22.1h1.9v9.1h-1.9V22.1z"/>
<path class="st1" d="M130.2,25.3c-0.2-1-0.9-1.7-2.1-1.7c-1.4,0-2.4,1.2-2.4,3.1c0,1.9,1,3.1,2.4,3.1c1.1,0,1.9-0.6,2.1-1.6h1.8
	c-0.2,1.9-1.7,3.2-3.9,3.2c-2.6,0-4.3-1.8-4.3-4.6c0-2.8,1.7-4.6,4.2-4.6c2.3,0,3.8,1.5,3.9,3.2C131.9,25.3,130.2,25.3,130.2,25.3z"
	/>
<linearGradient id="SVGID_1_" gradientUnits="userSpaceOnUse" x1="20.125" y1="9.5162" x2="20.125" y2="34.0396" gradientTransform="matrix(1 0 0 -1 0 42)">
	<stop  offset="0" style="stop-color:#FA233B"/>
	<stop  offset="1" style="stop-color:#FB5C74"/>
</linearGradient>
<path class="st2" d="M32.7,15.3c0-0.3,0-0.6,0-0.9c0-0.2,0-0.5,0-0.8c0-0.6,0-1.1-0.2-1.6c-0.1-0.6-0.3-1.1-0.5-1.6
	c-0.2-0.5-0.6-0.9-1-1.3s-0.8-0.7-1.3-1c-0.5-0.3-1-0.4-1.6-0.5S27,7.5,26.5,7.4c-0.2,0-0.5,0-0.8,0c-0.3,0-0.6,0-0.9,0h-9.4
	c-0.3,0-0.6,0-0.9,0c-0.2,0-0.5,0-0.8,0c-0.6,0-1.1,0.1-1.6,0.2c-0.6,0.1-1.1,0.3-1.6,0.5c-0.5,0.2-1,0.6-1.3,1
	c-0.4,0.4-0.7,0.8-1,1.3c-0.3,0.5-0.4,1-0.5,1.6c-0.1,0.6-0.1,1.1-0.2,1.6c0,0.2,0,0.5,0,0.8c0,0.3,0,0.6,0,0.9v9.4
	c0,0.3,0,0.6,0,0.9c0,0.2,0,0.5,0,0.8c0,0.5,0.1,1.1,0.2,1.6c0.1,0.5,0.3,1.1,0.5,1.6c0.2,0.5,0.6,1,1,1.3s0.8,0.7,1.3,1
	c0.5,0.3,1,0.4,1.6,0.5c0.6,0.1,1.1,0.1,1.6,0.2c0.2,0,0.5,0,0.8,0c0.3,0,0.6,0,0.9,0h9.4c0.3,0,0.6,0,0.9,0c0.2,0,0.5,0,0.8,0
	c0.5,0,1.1,0,1.6-0.2c0.5-0.1,1.1-0.3,1.6-0.5c0.5-0.2,1-0.6,1.3-1s0.7-0.8,1-1.3c0.3-0.5,0.4-1,0.5-1.6c0.1-0.5,0.1-1.1,0.2-1.6
	c0-0.2,0-0.5,0-0.8c0-0.3,0-0.6,0-0.9L32.7,15.3L32.7,15.3z"/>
<path class="st3" d="M25.3,11.3c-0.1,0-0.6,0.1-0.7,0.1l-7.5,1.5l0,0c-0.2,0-0.4,0.1-0.5,0.2c-0.1,0.1-0.2,0.3-0.2,0.5
	c0,0,0,0.1,0,0.2c0,0,0,7.6,0,9.4c0,0.2,0,0.4-0.2,0.6S16,24,15.7,24.1l-0.5,0.1c-0.6,0.1-1,0.2-1.4,0.4c-0.4,0.1-0.6,0.3-0.8,0.5
	c-0.4,0.4-0.6,1-0.5,1.6c0.1,0.5,0.3,0.9,0.6,1.2c0.2,0.2,0.6,0.4,0.9,0.5c0.4,0.1,0.8,0,1.4-0.1c0.3-0.1,0.6-0.2,0.9-0.3
	s0.5-0.4,0.7-0.6s0.3-0.5,0.4-0.9c0.1-0.3,0.1-0.6,0.1-0.9v-8.1c0-0.4,0.1-0.5,0.5-0.6c0,0,6.2-1.2,6.5-1.3c0.4-0.1,0.6,0,0.6,0.5
	v5.5c0,0.2,0,0.4-0.1,0.6s-0.3,0.2-0.5,0.3c-0.2,0-0.3,0.1-0.5,0.1c-0.6,0.1-1,0.2-1.4,0.4c-0.4,0.1-0.6,0.3-0.8,0.5
	c-0.4,0.4-0.6,1-0.5,1.6c0,0.5,0.3,0.9,0.6,1.2c0.2,0.2,0.5,0.4,0.9,0.5c0.4,0.1,0.8,0,1.4-0.1c0.3-0.1,0.6-0.1,0.9-0.3
	c0.3-0.2,0.5-0.4,0.7-0.6s0.3-0.5,0.4-0.9c0.1-0.3,0.1-0.6,0.1-0.9V11.9C26,11.5,25.7,11.2,25.3,11.3z"/>
</svg>
