<?xml version="1.0" encoding="utf-8"?>
<svg version="1.1" id="Layer_1" xmlns="http://www.w3.org/2000/svg" xmlns:xlink="http://www.w3.org/1999/xlink" x="0px" y="0px"
	 viewBox="0 0 133 40" style="enable-background:new 0 0 133 40;" xml:space="preserve">
<g>
	<path d="M20.7,0.3C10,0.3,1.3,9,1.3,19.7c0,10.8,8.7,19.5,19.5,19.5c10.8,0,19.5-8.7,19.5-19.5
		C40.2,9,31.5,0.3,20.7,0.3z M29.7,28.4c-0.3,0.6-1.1,0.8-1.7,0.4c-4.6-2.8-10.3-3.4-17.1-1.9C10.2,27,9.6,26.6,9.4,26
		c-0.1-0.7,0.3-1.3,0.9-1.5c7.4-1.7,13.8-1,18.9,2.2C29.8,27,30,27.8,29.7,28.4z M32,23.1c-0.4,0.7-1.4,0.9-2.1,0.5
		c-5.2-3.2-13.2-4.1-19.4-2.3c-0.8,0.2-1.7-0.2-1.9-1c-0.2-0.8,0.2-1.6,1-1.9c7.1-2.1,15.9-1.1,21.9,2.6
		C32.3,21.4,32.5,22.3,32,23.1z M32.2,17.5c-6.3-3.7-16.6-4.1-22.6-2.3c-1,0.3-2-0.3-2.3-1.2c-0.3-1,0.3-2,1.2-2.3
		c6.9-2.1,18.3-1.7,25.5,2.6c0.9,0.5,1.1,1.6,0.6,2.5C34.2,17.8,33.1,18.1,32.2,17.5z"/>
</g>
<path d="M54.2,18.3c-3.4-0.8-4-1.4-4-2.5c0-1.1,1.1-1.9,2.6-1.9c1.5,0,3,0.6,4.6,1.7c0,0,0.1,0,0.2,0
	c0.1,0,0.1,0,0.1-0.1l1.6-2.3c0.1-0.1,0-0.2,0-0.3c-1.9-1.5-4-2.2-6.5-2.2c-3.6,0-6.2,2.2-6.2,5.3c0,3.3,2.2,4.5,6,5.4
	c3.2,0.7,3.8,1.4,3.8,2.5c0,1.2-1.1,2-2.9,2c-2,0-3.6-0.7-5.4-2.2c0,0-0.1-0.1-0.2-0.1c-0.1,0-0.1,0-0.2,0.1l-1.8,2.2
	c-0.1,0.1-0.1,0.2,0,0.3c2.1,1.9,4.6,2.8,7.4,2.8c3.9,0,6.4-2.1,6.4-5.4C60,20.8,58.3,19.2,54.2,18.3z"/>
<path d="M68.8,14.9c-1.7,0-3.1,0.7-4.2,2v-1.5c0-0.1-0.1-0.2-0.2-0.2h-3c-0.1,0-0.2,0.1-0.2,0.2v17.1
	c0,0.1,0.1,0.2,0.2,0.2h3c0.1,0,0.2-0.1,0.2-0.2v-5.4c1.1,1.3,2.5,1.9,4.2,1.9c3.2,0,6.3-2.4,6.3-7.1C75.2,17.4,72,14.9,68.8,14.9z
	 M71.7,22c0,2.4-1.5,4-3.5,4c-2.1,0-3.6-1.7-3.6-4c0-2.3,1.6-4,3.6-4C70.2,18,71.7,19.7,71.7,22z"/>
<path d="M83.4,14.9c-4.1,0-7.2,3.1-7.2,7.1c0,3.9,3.2,7,7.2,7c4.1,0,7.3-3.1,7.3-7.1C90.6,18,87.4,14.9,83.4,14.9z
	 M83.4,26c-2.2,0-3.8-1.7-3.8-4c0-2.3,1.6-4,3.7-4c2.2,0,3.8,1.7,3.8,4C87.1,24.4,85.5,26,83.4,26z"/>
<path d="M99.2,15.2h-3.3v-3.4c0-0.1-0.1-0.2-0.2-0.2h-3c-0.1,0-0.2,0.1-0.2,0.2v3.4H91c-0.1,0-0.2,0.1-0.2,0.2V18
	c0,0.1,0.1,0.2,0.2,0.2h1.4v6.7c0,2.7,1.3,4.1,4,4.1c1.1,0,2-0.2,2.8-0.7c0.1,0,0.1-0.1,0.1-0.2v-2.5c0-0.1,0-0.1-0.1-0.2
	c-0.1,0-0.1,0-0.2,0c-0.6,0.3-1.1,0.4-1.8,0.4c-1,0-1.4-0.4-1.4-1.4v-6.2h3.3c0.1,0,0.2-0.1,0.2-0.2v-2.6
	C99.5,15.3,99.4,15.2,99.2,15.2z"/>
<path d="M110.8,15.2v-0.4c0-1.2,0.5-1.8,1.5-1.8c0.6,0,1.1,0.1,1.7,0.3c0.1,0,0.1,0,0.2,0c0.1,0,0.1-0.1,0.1-0.2v-2.5
	c0-0.1-0.1-0.2-0.2-0.2c-0.6-0.2-1.4-0.4-2.5-0.4c-2.8,0-4.3,1.6-4.3,4.5v0.6h-1.4c-0.1,0-0.2,0.1-0.2,0.2V18c0,0.1,0.1,0.2,0.2,0.2
	h1.4v10.3c0,0.1,0.1,0.2,0.2,0.2h3c0.1,0,0.2-0.1,0.2-0.2V18.2h2.8l4.3,10.3c-0.5,1.1-1,1.3-1.6,1.3c-0.5,0-1.1-0.2-1.7-0.5
	c-0.1,0-0.1,0-0.2,0c-0.1,0-0.1,0.1-0.1,0.1l-1,2.2c0,0.1,0,0.2,0.1,0.3c1.1,0.6,2,0.8,3.2,0.8c2.2,0,3.5-1,4.5-3.8l5.2-13.5
	c0-0.1,0-0.1,0-0.2c0-0.1-0.1-0.1-0.2-0.1h-3.1c-0.1,0-0.2,0.1-0.2,0.1l-3.2,9.2l-3.5-9.2c0-0.1-0.1-0.1-0.2-0.1H110.8z"/>
<path d="M104.1,15.2h-3c-0.1,0-0.2,0.1-0.2,0.2v13.1c0,0.1,0.1,0.2,0.2,0.2h3c0.1,0,0.2-0.1,0.2-0.2V15.4
	C104.3,15.3,104.2,15.2,104.1,15.2z"/>
<path d="M102.6,9.2c-1.2,0-2.2,1-2.2,2.2c0,1.2,1,2.2,2.2,2.2c1.2,0,2.2-1,2.2-2.2C104.8,10.2,103.8,9.2,102.6,9.2z"/>
<path d="M129,19.4c-1.2,0-2.1-1-2.1-2.1c0-1.2,0.9-2.1,2.1-2.1c1.2,0,2.1,1,2.1,2.1C131.1,18.5,130.2,19.4,129,19.4z
	 M129,15.4c-1.1,0-1.9,0.9-1.9,1.9c0,1.1,0.8,1.9,1.9,1.9c1.1,0,1.9-0.9,1.9-1.9C130.9,16.2,130.1,15.4,129,15.4z M129.4,17.5
	l0.6,0.8h-0.5l-0.5-0.8h-0.5v0.8h-0.4v-2.2h1c0.5,0,0.9,0.3,0.9,0.7C130,17.2,129.8,17.4,129.4,17.5z M129.1,16.5h-0.6v0.7h0.6
	c0.3,0,0.4-0.1,0.4-0.4C129.5,16.6,129.4,16.5,129.1,16.5z"/>
</svg>
